<svg width="33" height="33" viewBox="0 0 33 33" fill="none" xmlns="http://www.w3.org/2000/svg">
<path d="M14.3268 28.7374C9.58687 27.7271 5.84855 23.9116 4.86122 19.0711C3.30035 11.4317 8.47254 4.64584 15.4391 3.75472C16.3322 3.63967 16.998 2.86151 16.998 1.94319C16.998 0.838708 16.0455 -0.00848345 14.9721 0.129577C7.02023 1.15667 0.88734 8.14338 1 16.5714C1.12086 25.3717 8.15299 32.5529 16.7706 32.6764C25.0236 32.7935 31.8652 26.5306 32.871 18.408C33.0061 17.3119 32.1786 16.3392 31.095 16.3392C30.1958 16.3392 29.4317 17.0211 29.3211 17.931C28.4485 25.0454 21.8035 30.3293 14.3248 28.7353L14.3268 28.7374Z" fill="#630A37"/>
<path d="M30.9106 14.2663C32.0639 14.2663 32.998 13.3124 32.998 12.1347V3.87825C33 1.73622 31.2998 0 29.2023 0H21.1173C19.964 0 19.03 0.953874 19.03 2.13157C19.03 3.07708 19.6404 3.90754 20.5273 4.17529C24.5483 5.39065 27.7193 8.6288 28.9094 12.7351C29.1716 13.6408 29.9848 14.2642 30.9106 14.2642V14.2663Z" fill="#630A37"/>
</svg>
