<svg width="109" height="33" viewBox="0 0 109 33" fill="none" xmlns="http://www.w3.org/2000/svg">
<path d="M49.6411 8.17067C54.3832 8.08281 58.0682 11.7582 57.9822 16.3393C58.0682 20.9204 54.3832 24.5957 49.6411 24.5079C44.8704 24.5079 41.3288 20.9769 41.3288 16.3393C41.3288 11.7017 44.8704 8.17067 49.6411 8.17067ZM49.6411 10.8252C46.4989 10.8252 44.2703 13.0425 44.2703 16.3393C44.2703 19.636 46.4989 21.8533 49.6411 21.8533C52.7834 21.8533 55.0407 19.636 55.0407 16.3393C55.0407 13.0425 52.8121 10.8252 49.6411 10.8252Z" fill="#630A37"/>
<path d="M60.0306 8.60785H62.9168V10.3587H62.9741C64.1458 8.98647 66.059 8.17065 68.345 8.17065C72.7737 8.17065 76.172 11.6996 76.172 16.3393C76.258 20.9204 72.6876 24.5957 68.259 24.5078C66.0877 24.5078 64.0885 23.6607 63.0315 22.4076H62.9741V30.6348H60.0306V8.60785ZM68.0583 10.8252C65.2008 10.8252 62.9741 12.8375 62.9741 15.2892V17.3893C62.9741 19.841 65.1454 21.8533 67.9743 21.8533C71.0592 21.8533 73.2305 19.636 73.2305 16.3393C73.2305 13.0425 71.1452 10.8252 68.0603 10.8252H68.0583Z" fill="#630A37"/>
<path d="M85.5659 8.17065C90.1932 8.17065 93.5649 11.6724 93.5649 16.3393V17.3601H80.4244C80.4531 18.7323 80.9672 19.8389 81.9668 20.6861C82.9665 21.5333 84.1955 21.9705 85.6806 21.9705C87.8232 21.9705 89.5664 20.9789 90.9081 19.0252L93.022 20.7175C91.3362 23.2548 88.8802 24.5099 85.6806 24.5099C80.7091 24.5099 77.4809 21.2718 77.4809 16.3999C77.4809 11.528 80.8525 8.17275 85.5659 8.17275V8.17065ZM90.6234 15.0549C90.4513 12.6032 88.2226 10.708 85.5946 10.708C82.7657 10.708 80.6518 12.6053 80.4818 15.0549H90.6234Z" fill="#630A37"/>
<path d="M101.58 14.9963C104.665 14.5005 105.693 13.9462 105.693 12.8961C105.693 11.5824 104.323 10.7373 102.236 10.7373C99.835 10.7373 98.1512 12.0217 97.721 14.1219L94.9209 13.509C95.2056 11.9046 96.0065 10.5909 97.3216 9.62866C98.6653 8.66642 100.292 8.17065 102.207 8.17065C106.234 8.17065 108.807 10.2416 108.807 13.5383V24.0707H106.035V22.2027H105.978C104.978 23.6314 102.893 24.5078 100.521 24.5078C97.0635 24.5078 94.9209 22.7277 94.9209 19.8975C94.9209 17.0672 96.7788 15.7263 101.578 14.9963H101.58ZM105.923 15.7263H105.865C105.495 16.4271 104.495 16.835 102.094 17.2722C99.0095 17.8265 97.8091 18.5273 97.8091 19.8096C97.8091 21.2383 98.8087 21.8805 101.066 21.8805C103.637 21.8805 105.923 20.3346 105.923 18.5545V15.7243V15.7263Z" fill="#630A37"/>
<path d="M14.3268 28.7374C9.58687 27.7271 5.84855 23.9116 4.86122 19.0711C3.30035 11.4317 8.47254 4.64584 15.4391 3.75472C16.3322 3.63967 16.998 2.86151 16.998 1.94319C16.998 0.838708 16.0454 -0.00848345 14.9721 0.129577C7.02023 1.15667 0.88734 8.14338 1 16.5714C1.12086 25.3717 8.15299 32.5529 16.7706 32.6764C25.0236 32.7935 31.8652 26.5306 32.871 18.408C33.0061 17.3119 32.1786 16.3392 31.095 16.3392C30.1958 16.3392 29.4317 17.0211 29.3211 17.931C28.4485 25.0454 21.8035 30.3293 14.3248 28.7354L14.3268 28.7374Z" fill="#630A37"/>
<path d="M30.9106 14.2663C32.0639 14.2663 32.998 13.3124 32.998 12.1347V3.87825C33 1.73622 31.2998 0 29.2023 0H21.1173C19.964 0 19.03 0.953874 19.03 2.13157C19.03 3.07708 19.6404 3.90754 20.5273 4.17529C24.5483 5.39065 27.7193 8.6288 28.9094 12.7351C29.1716 13.6408 29.9848 14.2642 30.9106 14.2642V14.2663Z" fill="#630A37"/>
</svg>
